<?xml version="1.0" encoding="utf-8"?>
<!-- Generator: Adobe Illustrator 27.5.0, SVG Export Plug-In . SVG Version: 6.00 Build 0)  -->
<svg version="1.1" xmlns="http://www.w3.org/2000/svg" xmlns:xlink="http://www.w3.org/1999/xlink" x="0px" y="0px"
	 viewBox="0 0 3710 3710" style="enable-background:new 0 0 3710 3710;" xml:space="preserve">
<g id="Background">
	<g>
		<g>
			<rect style="fill:none;" width="3710" height="3710"/>
		</g>
	</g>
</g>
<g id="Illustration">
	<g>
		<linearGradient id="SVGID_1_" gradientUnits="userSpaceOnUse" x1="3483.4614" y1="3338.9641" x2="1382.7631" y2="1496.811">
			<stop  offset="0" style="stop-color:#DAE3FE"/>
			<stop  offset="1" style="stop-color:#E9EFFD"/>
		</linearGradient>
		<path style="fill:url(#SVGID_1_);" d="M2951.056,2833.159c-75.14,74.667-142.372,118.559-193.847,151.695
			c-502.03,323.16-1075.906,230.018-1253.333,198.182c-286.258-51.364-527.9-87.598-735.513-268.426
			c-471.76-410.896-448.814-1268.055-88.332-1799.028c42.742-62.958,402.679-577.317,977.796-649.795
			c14.067-1.773,24.562-2.782,33.755-3.72c88.969-9.081,640.295-57.01,1089.845,306.085
			c64.351,51.975,167.911,145.725,263.944,288.71C3396.511,1579.676,3397.624,2389.401,2951.056,2833.159z"/>
		<g>
			
				<linearGradient id="SVGID_00000075842948356460206790000014390712490694255289_" gradientUnits="userSpaceOnUse" x1="1809.1178" y1="2489.0027" x2="1872.0247" y2="3872.9329">
				<stop  offset="0" style="stop-color:#09005D"/>
				<stop  offset="1" style="stop-color:#1A0F91"/>
			</linearGradient>
			<polygon style="fill:url(#SVGID_00000075842948356460206790000014390712490694255289_);" points="1579.395,2643.417 
				1525.508,3126.708 2150.701,3126.708 2069.269,2643.417 			"/>
			
				<linearGradient id="SVGID_00000055668211487407804500000007019208842453721761_" gradientUnits="userSpaceOnUse" x1="1776.9766" y1="453.5762" x2="1776.9766" y2="2732.1672">
				<stop  offset="0" style="stop-color:#09005D"/>
				<stop  offset="1" style="stop-color:#1A0F91"/>
			</linearGradient>
			<path style="fill:url(#SVGID_00000055668211487407804500000007019208842453721761_);" d="M417.281,1463.761v1206.122
				c0,99.22,79.066,180.358,178.253,182.916c440.535,11.36,1981.312,38.905,2400.672,32.722
				c72.077-1.062,130.466-58.741,132.545-130.796c8.086-280.198,21.22-953.982-27.382-1266.794
				c-10.235-65.875-65.839-115.135-132.47-117.266c-369.113-11.808-2002.439-49.303-2421.602-39.889
				C475.005,1332.4,417.281,1391.451,417.281,1463.761z"/>
			
				<linearGradient id="SVGID_00000179630222628445104300000014313482036511921318_" gradientUnits="userSpaceOnUse" x1="1930.5519" y1="1007.9252" x2="1533.2665" y2="3529.8164">
				<stop  offset="0" style="stop-color:#FDF53F"/>
				<stop  offset="1" style="stop-color:#D93C65"/>
			</linearGradient>
			<path style="fill:url(#SVGID_00000179630222628445104300000014313482036511921318_);" d="M492.961,1457.89v1145.9
				c0,57.929,46.502,105.132,104.426,105.998l2338.487,28.891c57.427,0.858,104.5-45.344,104.714-102.777l3.912-1135.661
				c0.153-41.066-32.564-74.714-73.618-75.713L576.705,1376.16C530.788,1375.043,492.961,1411.96,492.961,1457.89z"/>
			<path style="fill:#91B3FA;" d="M3058.194,2785.45c-0.018,0-0.036,0-0.053,0l-2565.231-43.706c-1.685-0.03-3.028-1.418-3-3.102
				c0.028-1.687,1.349-2.92,3.104-3.001l2565.231,43.706c1.685,0.03,3.028,1.418,3,3.102
				C3061.216,2784.118,3059.855,2785.45,3058.194,2785.45z"/>
			
				<linearGradient id="SVGID_00000011741343052903500210000001341919098875124401_" gradientUnits="userSpaceOnUse" x1="1930.5519" y1="1007.9252" x2="1533.2665" y2="3529.8164">
				<stop  offset="0" style="stop-color:#FE7062"/>
				<stop  offset="1" style="stop-color:#FF928E"/>
			</linearGradient>
			<path style="fill:url(#SVGID_00000011741343052903500210000001341919098875124401_);" d="M492.961,1457.89v1145.9
				c0,57.929,46.502,105.132,104.426,105.998l2338.487,28.891c57.427,0.858,104.5-45.344,104.714-102.777l3.912-1135.661
				c0.153-41.066-32.564-74.714-73.618-75.713L576.705,1376.16C530.788,1375.043,492.961,1411.96,492.961,1457.89z"/>
			<path style="fill:#91B3FA;" d="M1800.883,2838.832c-16.401,0-29.743-13.342-29.743-29.741c0-16.403,13.342-29.744,29.743-29.744
				c16.4,0,29.741,13.342,29.741,29.744C1830.624,2825.49,1817.282,2838.832,1800.883,2838.832z M1800.883,2785.45
				c-13.035,0-23.64,10.606-23.64,23.641c0,13.035,10.605,23.638,23.64,23.638c13.034,0,23.638-10.603,23.638-23.638
				C1824.521,2796.056,1813.916,2785.45,1800.883,2785.45z"/>
			
				<linearGradient id="SVGID_00000076582663882728728430000005169895735162835088_" gradientUnits="userSpaceOnUse" x1="1827.8627" y1="2047.1923" x2="1827.8627" y2="3130.5715">
				<stop  offset="0" style="stop-color:#09005D"/>
				<stop  offset="1" style="stop-color:#1A0F91"/>
			</linearGradient>
			<path style="fill:url(#SVGID_00000076582663882728728430000005169895735162835088_);" d="M2285.368,3225.588h-915.013
				c-24.858,0-43.525-17.696-38.719-36.705l11.741-46.434c3.531-13.964,18.893-24.216,37.141-24.786l882.106-27.525
				c19.063-0.595,35.943,9.524,40.096,24.037l21.166,73.959C2329.384,3207.349,2310.627,3225.588,2285.368,3225.588z"/>
			<path style="fill:#91B3FA;" d="M1862.922,3130.311c-1.664,0-3.025-1.338-3.05-3.007c-0.024-1.687,1.322-3.073,3.007-3.096
				l37.799-0.551c1.639-0.048,3.071,1.323,3.096,3.007c0.024,1.687-1.322,3.072-3.007,3.096l-37.799,0.551
				C1862.953,3130.311,1862.937,3130.311,1862.922,3130.311z"/>
			<path style="fill:#91B3FA;" d="M1365.511,3200.057c-0.16,0-0.322-0.012-0.484-0.039c-1.664-0.265-2.798-1.83-2.532-3.493
				l5.393-33.773c2.903-18.185,18.372-31.574,36.782-31.845l400.92-5.862c1.719,0.119,3.071,1.32,3.096,3.007
				c0.024,1.687-1.322,3.073-3.007,3.096l-400.92,5.862c-15.438,0.227-28.411,11.456-30.845,26.702l-5.392,33.773
				C1368.281,3198.988,1366.985,3200.057,1365.511,3200.057z"/>
			<g>
				<path style="fill:#91B3FA;" d="M2863.164,949.979l-1234.604-5.935c-14.88-0.136-26.964,16.323-26.85,36.571l2.735,488.468
					c0.114,20.363,12.515,36.614,27.473,36.003l1227.568-26.291c14.28-0.584,25.685-16.375,25.869-35.813l4.302-456.242
					C2889.845,966.608,2877.958,950.114,2863.164,949.979z"/>
				<g>
					<path style="fill:#BDD0FB;" d="M1631.135,1473.756c-2.284,0-4.058-2.161-4.075-4.918l-2.734-488.462
						c-0.006-1.283,0.337-2.408,1.022-3.347c0.992-1.357,2.205-1.641,3.049-1.641l1234.613,5.938
						c0.841,0.006,2.04,0.303,3.023,1.663c0.68,0.946,1.02,2.068,1.009,3.341l-4.302,456.24c-0.025,2.701-1.709,4.803-3.918,4.893
						h-0.029L1631.135,1473.756z M1628.389,978.553c-0.077,0-0.233,0-0.484,0.343c-0.281,0.386-0.417,0.865-0.414,1.462
						l2.734,488.462c0.006,1.082,0.58,1.771,0.876,1.771l1227.623-26.294c0.324-0.025,0.841-0.729,0.85-1.759l4.302-456.237
						c0.005-0.593-0.13-1.069-0.411-1.462c-0.25-0.346-0.41-0.349-0.478-0.349L1628.389,978.553z"/>
				</g>
				<g style="opacity:0.6;">
					<rect x="1678.62" y="1202.388" style="fill:#FFFFFF;" width="60.082" height="229.598"/>
					<rect x="1779.012" y="1281.297" style="fill:#FFFFFF;" width="60.082" height="150.689"/>
					<rect x="1879.403" y="1086.279" style="fill:#FFFFFF;" width="60.082" height="345.708"/>
					<rect x="1979.795" y="1348.934" style="fill:#FFFFFF;" width="60.082" height="83.052"/>
					<rect x="2080.187" y="1132.497" style="fill:#FFFFFF;" width="60.082" height="299.489"/>
					<rect x="2180.578" y="1184.352" style="fill:#FFFFFF;" width="60.082" height="247.635"/>
					<rect x="2280.97" y="1240.715" style="fill:#FFFFFF;" width="60.082" height="191.271"/>
					<rect x="2381.361" y="1016.388" style="fill:#FFFFFF;" width="60.082" height="415.599"/>
					<rect x="2481.753" y="1060.351" style="fill:#FFFFFF;" width="60.082" height="371.635"/>
					<rect x="2582.145" y="1126.86" style="fill:#FFFFFF;" width="60.082" height="305.126"/>
					<rect x="2682.536" y="1356.642" style="fill:#FFFFFF;" width="60.082" height="75.344"/>
					<rect x="2782.928" y="1210.279" style="fill:#FFFFFF;" width="60.082" height="221.707"/>
				</g>
			</g>
			<g>
				<path style="fill:#91B3FA;" d="M694.715,2044.226h667.255c21.277,0,38.526-17.249,38.526-38.526v-999.393
					c0-21.237-17.186-38.469-38.423-38.526l-672.591-1.805c-21.398-0.057-38.743,17.333-38.629,38.731l5.336,1001.198
					C656.303,2027.103,673.518,2044.226,694.715,2044.226z"/>
				<path style="fill:#BDD0FB;" d="M727.413,1015.289l596.633,3.673c21.566,0.133,38.951,17.706,38.851,39.272l-4.163,896.99
					c-0.099,21.241-17.141,38.516-38.378,38.904l-579.703,10.576c-21.651,0.395-39.498-16.885-39.801-38.537l-12.767-911.24
					C687.777,1033.032,705.515,1015.155,727.413,1015.289z"/>
				<path style="opacity:0.6;fill:#FFFFFF;" d="M751.671,1065.543v4.114c0,6.459,5.236,11.695,11.695,11.695h459.703
					c6.459,0,11.694-5.236,11.694-11.695v-4.114c0-6.459-5.236-11.695-11.694-11.695H763.366
					C756.907,1053.848,751.671,1059.084,751.671,1065.543z"/>
				<path style="opacity:0.6;fill:#FFFFFF;" d="M802.963,1117.28L802.963,1117.28c0.332,6.122,5.335,10.948,11.465,11.06
					l402.033,7.327c6.541,0.119,11.908-5.151,11.908-11.693v-0.955c0-6.386-5.124-11.592-11.51-11.693l-402.033-6.372
					C808.046,1104.847,802.596,1110.509,802.963,1117.28z"/>
				<path style="opacity:0.61;fill:#FFFFFF;" d="M761.928,1974.621c-18.392,0-33.547-14.844-33.873-33.279l-13.045-733.629
					c-0.332-18.643,14.568-34.11,33.214-34.474l542.823-10.567c9.094-0.113,17.629,3.183,24.152,9.462s10.21,14.719,10.381,23.769
					l13.991,737.667c0.173,9.095-3.218,17.699-9.55,24.228c-6.33,6.529-14.823,10.183-23.917,10.293l-543.771,6.526
					C762.201,1974.618,762.063,1974.621,761.928,1974.621z M1291.718,1174.873c-0.145,0-0.288,0.003-0.432,0.006l-542.823,10.567
					c-11.929,0.229-21.461,10.123-21.25,22.053l0,0l13.045,733.629c0.21,11.789,9.906,21.287,21.671,21.287
					c0.087,0,0.173,0,0.259-0.003l543.771-6.526c5.817-0.069,11.25-2.408,15.3-6.583c4.05-4.178,6.219-9.682,6.109-15.5
					l-13.991-737.667c-0.11-5.79-2.469-11.19-6.641-15.204C1302.667,1177.016,1297.347,1174.873,1291.718,1174.873z"/>
				<path style="opacity:0.61;fill:#FFFFFF;" d="M1320.363,1248.687H728.155c-3.371,0-6.103-2.733-6.103-6.103
					c0-3.37,2.733-6.103,6.103-6.103h592.208c3.37,0,6.103,2.733,6.103,6.103
					C1326.466,1245.954,1323.733,1248.687,1320.363,1248.687z"/>
				<g>
					<path style="opacity:0.73;fill:#FFFFFF;" d="M1040.903,1832.625c-128.317,0-232.711-104.394-232.711-232.713
						c0-128.317,104.394-232.711,232.711-232.711c128.318,0,232.712,104.394,232.712,232.711
						C1273.615,1728.231,1169.221,1832.625,1040.903,1832.625z M1040.903,1440.181c-88.076,0-159.731,71.654-159.731,159.731
						c0,88.077,71.656,159.733,159.731,159.733c88.077,0,159.732-71.656,159.732-159.733
						C1200.635,1511.835,1128.98,1440.181,1040.903,1440.181z"/>
					<path style="fill:#7D97F4;" d="M1272.965,1582.503l-72.776,5.46c0.293,3.946,0.446,7.93,0.446,11.949
						c0,19.033-3.352,37.295-9.486,54.236l68.646,24.779c8.937-24.681,13.82-51.288,13.82-79.016
						C1273.615,1594.056,1273.392,1588.251,1272.965,1582.503z"/>
					<path style="fill:#91B3FA;" d="M1040.903,1759.645c-88.076,0-159.731-71.656-159.731-159.733
						c0-88.077,71.656-159.731,159.731-159.731c13.419,0,26.453,1.672,38.914,4.803l17.779-70.786
						c-18.154-4.561-37.144-6.997-56.693-6.997c-128.317,0-232.711,104.394-232.711,232.711
						c0,128.319,104.394,232.713,232.711,232.713c100.59,0,186.47-64.157,218.892-153.697l-68.646-24.779
						C1168.895,1715.607,1109.948,1759.645,1040.903,1759.645z"/>
					<path style="fill:#91B3FA;" d="M1200.189,1587.963l72.776-5.46c-2.237-30.107-10.233-58.633-22.88-84.49l-65.601,31.957
						C1193.165,1547.717,1198.653,1567.297,1200.189,1587.963z"/>
				</g>
			</g>
			<g>
				<defs>
					<path id="SVGID_00000096045746306841087800000007992909066130625469_" d="M492.961,1457.89v1145.9
						c0,57.929,46.502,105.132,104.426,105.998l2338.487,28.891c57.427,0.858,104.5-45.344,104.714-102.777l3.912-1135.661
						c0.153-41.066-32.564-74.714-73.618-75.713L576.705,1376.16C530.788,1375.043,492.961,1411.96,492.961,1457.89z"/>
				</defs>
				<clipPath id="SVGID_00000084515652374503606700000004294954806054355332_">
					<use xlink:href="#SVGID_00000096045746306841087800000007992909066130625469_"  style="overflow:visible;"/>
				</clipPath>
				<g style="clip-path:url(#SVGID_00000084515652374503606700000004294954806054355332_);">
					<path style="fill:#91B3FA;" d="M686.113,3233.381h667.255c21.277,0,38.526-17.249,38.526-38.526v-999.393
						c0-21.237-17.186-38.469-38.423-38.526l-672.591-1.805c-21.398-0.057-38.743,17.334-38.629,38.731l5.336,1001.198
						C647.701,3216.257,664.916,3233.381,686.113,3233.381z"/>
					<path style="fill:#BDD0FB;" d="M718.811,2204.444l596.633,3.673c21.566,0.133,38.951,17.706,38.851,39.273l-4.163,896.99
						c-0.099,21.241-17.141,38.517-38.378,38.904L732.05,3193.86c-21.651,0.395-39.498-16.885-39.801-38.538l-12.767-911.24
						C679.176,2222.187,696.913,2204.309,718.811,2204.444z"/>
					<path style="opacity:0.6;fill:#FFFFFF;" d="M743.07,2254.698v4.113c0,6.459,5.236,11.695,11.695,11.695h459.703
						c6.459,0,11.694-5.236,11.694-11.695v-4.113c0-6.459-5.236-11.695-11.694-11.695H754.764
						C748.306,2243.003,743.07,2248.239,743.07,2254.698z"/>
					<path style="opacity:0.6;fill:#FFFFFF;" d="M794.361,2306.435L794.361,2306.435c0.332,6.122,5.335,10.948,11.465,11.06
						l402.032,7.327c6.541,0.119,11.908-5.151,11.908-11.693v-0.955c0-6.387-5.124-11.592-11.51-11.693l-402.033-6.372
						C799.444,2294.002,793.994,2299.664,794.361,2306.435z"/>
					<path style="opacity:0.61;fill:#FFFFFF;" d="M753.32,3163.776c-18.387,0-33.539-14.844-33.867-33.276l-13.045-733.632
						c-0.332-18.643,14.568-34.11,33.215-34.474l542.823-10.567c9.076-0.092,17.629,3.183,24.152,9.462
						c6.523,6.279,10.21,14.719,10.381,23.769l13.991,737.667c0.173,9.095-3.219,17.698-9.55,24.228
						c-6.33,6.529-14.823,10.183-23.917,10.293l-543.771,6.526C753.596,3163.773,753.457,3163.776,753.32,3163.776z
						 M1283.116,2364.027c-0.145,0-0.288,0.003-0.432,0.006l-542.823,10.567c-11.929,0.229-21.461,10.123-21.249,22.052l0,0
						l13.045,733.629c0.213,11.876,10.104,21.409,21.929,21.284l543.772-6.527c5.817-0.068,11.25-2.408,15.3-6.583
						c4.05-4.178,6.219-9.682,6.109-15.499l-13.991-737.667c-0.11-5.79-2.469-11.19-6.641-15.204
						C1294.065,2366.17,1288.745,2364.027,1283.116,2364.027z"/>
					<path style="opacity:0.61;fill:#FFFFFF;" d="M1311.76,2437.841H719.553c-3.37,0-6.103-2.733-6.103-6.103
						c0-3.371,2.733-6.103,6.103-6.103h592.208c3.37,0,6.103,2.733,6.103,6.103
						C1317.864,2435.108,1315.131,2437.841,1311.76,2437.841z"/>
				</g>
				<g style="clip-path:url(#SVGID_00000084515652374503606700000004294954806054355332_);">
					<path style="fill:#91B3FA;" d="M2882.68,2353.952l-1265.431-6.083c-15.251-0.139-27.637,16.73-27.521,37.484l2.803,500.665
						c0.117,20.872,12.827,37.528,28.159,36.901l1258.219-26.947c14.636-0.599,26.327-16.783,26.515-36.708l4.409-467.635
						C2910.028,2370.996,2897.844,2354.09,2882.68,2353.952z"/>
					<g>
						<path style="fill:#BDD0FB;" d="M1619.888,2890.806c-2.341,0-4.16-2.215-4.177-5.041l-2.802-500.659
							c-0.006-1.315,0.345-2.468,1.047-3.431c1.02-1.388,2.262-1.679,3.125-1.679l1265.44,6.083c0.86,0.006,2.089,0.311,3.098,1.708
							c0.697,0.963,1.045,2.113,1.034,3.422l-4.41,467.635c-0.025,2.769-1.752,4.923-4.015,5.015h-0.03L1619.888,2890.806z
							 M1617.074,2383.241c-0.079,0-0.241,0-0.497,0.352c-0.284,0.387-0.426,0.894-0.423,1.495l2.802,500.659
							c0.006,1.109,0.594,1.815,0.898,1.815l1258.276-26.948c0.333-0.025,0.862-0.748,0.871-1.802l4.41-467.632
							c0.005-0.599-0.136-1.099-0.418-1.492c-0.263-0.361-0.431-0.364-0.493-0.364L1617.074,2383.241z"/>
					</g>
					<g style="opacity:0.6;">
						
							<rect x="2065.11" y="2680.279" transform="matrix(6.123234e-17 -1 1 6.123234e-17 -751.2216 4901.7642)" style="fill:#FFFFFF;" width="20.322" height="292.427"/>
						
							<rect x="2115.362" y="2696.575" transform="matrix(6.123234e-17 -1 1 6.123234e-17 -667.0147 4918.0601)" style="fill:#FFFFFF;" width="20.322" height="191.924"/>
						
							<rect x="1991.169" y="2538.427" transform="matrix(6.123234e-17 -1 1 6.123234e-17 -757.2518 4759.9121)" style="fill:#FFFFFF;" width="20.322" height="440.309"/>
						
							<rect x="2158.434" y="2671.737" transform="matrix(6.123234e-17 -1 1 6.123234e-17 -556.0311 4893.2217)" style="fill:#FFFFFF;" width="20.322" height="105.779"/>
						
							<rect x="2020.602" y="2499.949" transform="matrix(6.123234e-17 -1 1 6.123234e-17 -659.9078 4721.4336)" style="fill:#FFFFFF;" width="20.322" height="381.443"/>
						
							<rect x="2053.625" y="2499.016" transform="matrix(6.123234e-17 -1 1 6.123234e-17 -592.9301 4720.5005)" style="fill:#FFFFFF;" width="20.322" height="315.399"/>
						
							<rect x="2089.518" y="2500.954" transform="matrix(6.123234e-17 -1 1 6.123234e-17 -523.0808 4722.439)" style="fill:#FFFFFF;" width="20.322" height="243.611"/>
						
							<rect x="1946.661" y="2324.141" transform="matrix(6.123234e-17 -1 1 6.123234e-17 -631.9825 4545.626)" style="fill:#FFFFFF;" width="20.322" height="529.326"/>
						
							<rect x="1974.658" y="2318.183" transform="matrix(6.123234e-17 -1 1 6.123234e-17 -570.0298 4539.6675)" style="fill:#FFFFFF;" width="20.322" height="473.332"/>
						
							<rect x="2017.013" y="2326.582" transform="matrix(6.123234e-17 -1 1 6.123234e-17 -493.7196 4548.0669)" style="fill:#FFFFFF;" width="20.322" height="388.622"/>
						
							<rect x="2163.343" y="2438.957" transform="matrix(6.123234e-17 -1 1 6.123234e-17 -313.4341 4660.4414)" style="fill:#FFFFFF;" width="20.322" height="95.962"/>
						
							<rect x="2070.135" y="2311.794" transform="matrix(6.123234e-17 -1 1 6.123234e-17 -372.6858 4533.2788)" style="fill:#FFFFFF;" width="20.322" height="282.376"/>
					</g>
					<g style="opacity:0.6;">
						
							<rect x="2428.19" y="2680.279" transform="matrix(6.123234e-17 -1 1 6.123234e-17 -388.1415 5264.8442)" style="fill:#FFFFFF;" width="20.322" height="292.427"/>
						
							<rect x="2377.939" y="2696.575" transform="matrix(6.123234e-17 -1 1 6.123234e-17 -404.4374 5180.6372)" style="fill:#FFFFFF;" width="20.322" height="191.924"/>
						
							<rect x="2502.132" y="2538.427" transform="matrix(6.123234e-17 -1 1 6.123234e-17 -246.2896 5270.8745)" style="fill:#FFFFFF;" width="20.322" height="440.309"/>
						
							<rect x="2334.866" y="2671.737" transform="matrix(6.123234e-17 -1 1 6.123234e-17 -379.5989 5069.6538)" style="fill:#FFFFFF;" width="20.322" height="105.779"/>
						
							<rect x="2472.699" y="2499.949" transform="matrix(6.123234e-17 -1 1 6.123234e-17 -207.8112 5173.5303)" style="fill:#FFFFFF;" width="20.322" height="381.444"/>
						
							<rect x="2439.677" y="2499.016" transform="matrix(6.123234e-17 -1 1 6.123234e-17 -206.8781 5106.5527)" style="fill:#FFFFFF;" width="20.322" height="315.399"/>
						
							<rect x="2403.783" y="2500.954" transform="matrix(6.123234e-17 -1 1 6.123234e-17 -208.8163 5036.7031)" style="fill:#FFFFFF;" width="20.322" height="243.611"/>
						
							<rect x="2546.64" y="2324.141" transform="matrix(6.123234e-17 -1 1 6.123234e-17 -32.0034 5145.605)" style="fill:#FFFFFF;" width="20.322" height="529.326"/>
						
							<rect x="2518.643" y="2318.183" transform="matrix(6.123234e-17 -1 1 6.123234e-17 -26.0451 5083.6523)" style="fill:#FFFFFF;" width="20.322" height="473.332"/>
						
							<rect x="2476.288" y="2326.582" transform="matrix(6.123234e-17 -1 1 6.123234e-17 -34.4443 5007.3423)" style="fill:#FFFFFF;" width="20.322" height="388.622"/>
						
							<rect x="2329.958" y="2438.957" transform="matrix(6.123234e-17 -1 1 6.123234e-17 -146.8189 4827.0566)" style="fill:#FFFFFF;" width="20.322" height="95.962"/>
						
							<rect x="2423.165" y="2311.794" transform="matrix(6.123234e-17 -1 1 6.123234e-17 -19.6562 4886.3086)" style="fill:#FFFFFF;" width="20.322" height="282.377"/>
					</g>
				</g>
			</g>
		</g>
		<g>
			
				<linearGradient id="SVGID_00000146500652192928835930000016227556668670945410_" gradientUnits="userSpaceOnUse" x1="2904.0427" y1="1349.6543" x2="1640.2667" y2="2865.0649">
				<stop  offset="0" style="stop-color:#4F52FF"/>
				<stop  offset="1" style="stop-color:#4042E2"/>
			</linearGradient>
			<path style="fill:url(#SVGID_00000146500652192928835930000016227556668670945410_);" d="M3222.063,1585.987l-1583.567-7.613
				c-19.086-0.174-34.585,20.936-34.44,46.908l3.508,626.535c0.146,26.119,16.052,46.963,35.238,46.178l1574.542-33.721
				c18.316-0.749,32.945-21.003,33.181-45.936l5.517-585.2C3256.285,1607.317,3241.039,1586.16,3222.063,1585.987z"/>
			<path style="fill:#FFFFFF;" d="M1641.798,2257.811c-2.93,0-5.205-2.771-5.227-6.308l-3.507-626.527
				c-0.008-1.641,0.432-3.084,1.308-4.293c1.279-1.74,2.833-2.105,3.913-2.105l1583.579,7.616c1.078,0.008,2.616,0.388,3.877,2.133
				c0.872,1.213,1.308,2.652,1.294,4.286l-5.519,585.197c-0.032,3.465-2.192,6.161-5.025,6.276h-0.038L1641.798,2257.811z
				 M1638.276,1622.638c-0.099,0-0.301,0-0.622,0.44c-0.359,0.492-0.533,1.11-0.529,1.875l3.507,626.527
				c0.008,1.388,0.743,2.272,1.124,2.272l1574.613-33.726c0.41-0.028,1.078-0.932,1.09-2.256l5.519-585.193
				c0.006-0.761-0.167-1.372-0.527-1.875c-0.321-0.444-0.525-0.448-0.613-0.448L1638.276,1622.638z"/>
			<g>
				<circle style="fill:#FFFFFF;" cx="1919.258" cy="1856.3" r="163.951"/>
				<circle style="fill:#FFFFFF;" cx="2325.317" cy="1856.3" r="163.951"/>
				<circle style="fill:#FFFFFF;" cx="2732.783" cy="1861.666" r="163.951"/>
				<g>
					
						<linearGradient id="SVGID_00000024682313309432272930000001889405337632760245_" gradientUnits="userSpaceOnUse" x1="2545.4553" y1="997.139" x2="2233.2554" y2="1428.1617">
						<stop  offset="0" style="stop-color:#FE7062"/>
						<stop  offset="1" style="stop-color:#FF928E"/>
					</linearGradient>
					<path style="fill:url(#SVGID_00000024682313309432272930000001889405337632760245_);" d="M2016.677,1821.65
						c5.074,12.34,7.892,25.847,7.892,40.016c0,58.161-47.149,105.31-105.31,105.31c-58.161,0-105.31-47.149-105.31-105.31
						c0-58.161,47.149-105.31,105.31-105.31c1.781,0,3.552,0.047,5.312,0.134v-26.695c-1.763-0.07-3.532-0.115-5.312-0.115
						c-72.894,0-131.986,59.092-131.986,131.986s59.092,131.986,131.986,131.986c72.894,0,131.986-59.092,131.986-131.986
						c0-17.949-3.589-35.057-10.078-50.656L2016.677,1821.65z"/>
					
						<linearGradient id="SVGID_00000012430513735068985040000001614117034552207011_" gradientUnits="userSpaceOnUse" x1="2807.5061" y1="1186.9491" x2="2495.3071" y2="1617.9706">
						<stop  offset="0" style="stop-color:#FE7062"/>
						<stop  offset="1" style="stop-color:#FF928E"/>
					</linearGradient>
					<path style="fill:url(#SVGID_00000012430513735068985040000001614117034552207011_);" d="M2381.048,1950.766
						c-16.248,10.254-35.479,16.211-56.112,16.211c-58.161,0-105.31-47.149-105.31-105.31c0-58.161,47.149-105.31,105.31-105.31
						c1.782,0,3.552,0.047,5.312,0.134v-26.695c-1.763-0.07-3.532-0.115-5.312-0.115c-72.894,0-131.986,59.092-131.986,131.986
						s59.092,131.986,131.986,131.986c25.44,0,49.195-7.205,69.347-19.674L2381.048,1950.766z"/>
					
						<linearGradient id="SVGID_00000156568275088994139130000001447858467842689446_" gradientUnits="userSpaceOnUse" x1="3080.4758" y1="1384.6667" x2="2768.2756" y2="1815.6899">
						<stop  offset="0" style="stop-color:#FE7062"/>
						<stop  offset="1" style="stop-color:#FF928E"/>
					</linearGradient>
					<path style="fill:url(#SVGID_00000156568275088994139130000001447858467842689446_);" d="M2822.07,1920.875
						c-18.954,27.825-50.885,46.101-87.091,46.101c-58.162,0-105.311-47.149-105.311-105.31c0-58.161,47.149-105.31,105.311-105.31
						c1.781,0,3.552,0.047,5.312,0.134v-26.695c-1.763-0.07-3.532-0.115-5.312-0.115c-72.894,0-131.987,59.092-131.987,131.986
						s59.093,131.986,131.987,131.986c45.094,0,84.899-22.62,108.707-57.127L2822.07,1920.875z"/>
				</g>
				<g>
					<path style="fill:#7D97F4;" d="M2054.014,2089.7h-267.173c-16.77,0-30.365,13.595-30.365,30.365
						c0,16.769,13.594,30.364,30.365,30.364h267.173c16.769,0,30.365-13.594,30.365-30.364
						C2084.379,2103.295,2070.784,2089.7,2054.014,2089.7z"/>
					<path style="fill:#7D97F4;" d="M2461.48,2089.7h-267.173c-16.77,0-30.364,13.595-30.364,30.365
						c0,16.769,13.594,30.364,30.364,30.364h267.173c16.77,0,30.365-13.594,30.365-30.364
						C2491.844,2103.295,2478.25,2089.7,2461.48,2089.7z"/>
					<path style="fill:#7D97F4;" d="M2599.197,2150.428h267.173c16.77,0,30.364-13.594,30.364-30.364
						c0-16.77-13.594-30.365-30.364-30.365h-267.173c-16.77,0-30.365,13.595-30.365,30.365
						C2568.832,2136.834,2582.427,2150.428,2599.197,2150.428z"/>
				</g>
			</g>
		</g>
		<g>
			<g>
				<g>
					
						<linearGradient id="SVGID_00000091007875866572749780000008885399252150666405_" gradientUnits="userSpaceOnUse" x1="1975.0601" y1="3246.8562" x2="2143.4341" y2="3246.8562" gradientTransform="matrix(1 0 0 1 -1140.7335 0)">
						<stop  offset="0" style="stop-color:#4F52FF"/>
						<stop  offset="1" style="stop-color:#4042E2"/>
					</linearGradient>
					<path style="fill:url(#SVGID_00000091007875866572749780000008885399252150666405_);" d="M997.946,3238.712
						c-28.844,2.493-78.905,6.543-118.371,8.28c-23.724,1.044-37.382-1.279-45.248-4.428c0.013,0.887,0.038,1.725,0.073,2.503
						c0.187,4.153,3.561,7.475,7.756,7.709c74.573,4.162,133.88,1.44,154.994,0.156c4.366-0.266,6.968-5.01,4.735-8.732
						C1000.768,3242.339,999.415,3240.515,997.946,3238.712z"/>
					
						<linearGradient id="SVGID_00000166643134086279546650000003672945621501604508_" gradientUnits="userSpaceOnUse" x1="1975.0504" y1="3213.8569" x2="2138.6794" y2="3213.8569" gradientTransform="matrix(1 0 0 1 -1140.7335 0)">
						<stop  offset="0" style="stop-color:#09005D"/>
						<stop  offset="1" style="stop-color:#1A0F91"/>
					</linearGradient>
					<path style="fill:url(#SVGID_00000166643134086279546650000003672945621501604508_);" d="M879.575,3246.993
						c39.466-1.737,89.527-5.787,118.371-8.28c-28.359-34.793-118.371-58.244-118.371-58.244h-25.422
						c-17.485,25.204-20.017,49.201-19.826,62.096C842.193,3245.714,855.851,3248.037,879.575,3246.993z"/>
					
						<linearGradient id="SVGID_00000044163568391907292530000011610924394732196017_" gradientUnits="userSpaceOnUse" x1="1990.605" y1="3167.7856" x2="2038.0323" y2="3167.7856" gradientTransform="matrix(1 0 0 1 -1140.7335 0)">
						<stop  offset="0" style="stop-color:#FEBBBA"/>
						<stop  offset="1" style="stop-color:#FF928E"/>
					</linearGradient>
					<path style="fill:url(#SVGID_00000044163568391907292530000011610924394732196017_);" d="M849.871,3138.965l2.379,47.078
						c0.258,5.098,4.074,9.382,9.179,10.112c5.08,0.727,11.883,0.819,19.097-1.582c4.438-1.477,7.733-5.217,8.551-9.779
						l8.221-45.829H849.871z"/>
				</g>
				<g>
					<g>
						
							<linearGradient id="SVGID_00000182493013720981624500000009768463720444712345_" gradientUnits="userSpaceOnUse" x1="1639.3923" y1="3243.2251" x2="1703.916" y2="3243.2251" gradientTransform="matrix(1 0 0 1 -1140.7335 0)">
							<stop  offset="0" style="stop-color:#4F52FF"/>
							<stop  offset="1" style="stop-color:#4042E2"/>
						</linearGradient>
						<path style="fill:url(#SVGID_00000182493013720981624500000009768463720444712345_);" d="M519.669,3246.639
							c-12.509-1.745-18.168-8.243-20.541-15.189c-0.016,0.063-0.031,0.125-0.047,0.187c-1.84,7.328,2.426,14.923,10.955,18.535
							c10.309,4.365,21.581,5.109,30.332,4.749c9.388-0.387,18.006-4.272,22.743-10.49l0.071-0.093
							C553.759,3249,540.53,3249.549,519.669,3246.639z"/>
						
							<linearGradient id="SVGID_00000167361977677603186620000010498958923445867664_" gradientUnits="userSpaceOnUse" x1="1639.8617" y1="3193.5437" x2="1734.5698" y2="3193.5437" gradientTransform="matrix(1 0 0 1 -1140.7335 0)">
							<stop  offset="0" style="stop-color:#09005D"/>
							<stop  offset="1" style="stop-color:#1A0F91"/>
						</linearGradient>
						<path style="fill:url(#SVGID_00000167361977677603186620000010498958923445867664_);" d="M578.646,3138.663H557.68
							c-31.935-0.652-51.988,66.703-58.552,92.787c2.373,6.947,8.033,13.445,20.541,15.189c20.861,2.909,34.089,2.36,43.513-2.302
							c17.253-22.703,25.806-55.955,29.918-75.36C597.776,3146.907,578.646,3138.663,578.646,3138.663z"/>
					</g>
					
						<linearGradient id="SVGID_00000003099144825035118200000017623765733249625216_" gradientUnits="userSpaceOnUse" x1="1689.0895" y1="3128.2483" x2="1745.7701" y2="3128.2483" gradientTransform="matrix(1 0 0 1 -1140.7335 0)">
						<stop  offset="0" style="stop-color:#FEBBBA"/>
						<stop  offset="1" style="stop-color:#FF928E"/>
					</linearGradient>
					<path style="fill:url(#SVGID_00000003099144825035118200000017623765733249625216_);" d="M560.375,3094.967l-11.642,46.303
						c-1.427,5.677,1.29,11.549,6.539,14.243c6.513,3.342,15.682,6.854,24.109,5.838c3.963-0.478,7.255-3.27,8.565-7.001
						l17.091-48.716L560.375,3094.967z"/>
				</g>
				
					<linearGradient id="SVGID_00000025430295615870826790000003697347393068363915_" gradientUnits="userSpaceOnUse" x1="1555.1312" y1="1476.5643" x2="1132.2622" y2="2273.3745">
					<stop  offset="0" style="stop-color:#4F52FF"/>
					<stop  offset="1" style="stop-color:#4042E2"/>
				</linearGradient>
				<path style="fill:url(#SVGID_00000025430295615870826790000003697347393068363915_);" d="M546.489,3108.351
					c14.484,12.848,61.596,14.544,61.596,14.544c169.704-407.306,239.124-465.169,239.124-465.169
					c-24.504,153.736-3.951,494.088-3.951,494.088c28.004,12.357,64.108,0,64.108,0c2.274-251.686,40.96-471.18,86.66-644.225
					c-114.699-2.578-175.695-41.828-195.612-57.581C702.805,2604.149,546.489,3108.351,546.489,3108.351z"/>
				
					<linearGradient id="SVGID_00000066513587848117412870000008397931118827466685_" gradientUnits="userSpaceOnUse" x1="1210.2141" y1="3412.3772" x2="1014.5068" y2="3682.6399" gradientTransform="matrix(1 0 0 1 -1140.7335 0)">
					<stop  offset="0" style="stop-color:#4F52FF"/>
					<stop  offset="1" style="stop-color:#4042E2"/>
				</linearGradient>
				<path style="fill:url(#SVGID_00000066513587848117412870000008397931118827466685_);" d="M827.544,1981.605
					c-21.71,108.29-13.929,302.11-8.819,390.516c1.436,24.849-15.91,59.296-29.93,82.796c-2.199,3.686-0.841,8.406,2.976,10.368
					c23.473,12.064,102.996,49.454,195.161,54.106c6.146,0.31,11.633-3.876,13.224-9.819
					c68.366-255.269,147.773-418.387,147.773-418.387C1060.261,1951.185,827.544,1981.605,827.544,1981.605z"/>
				
					<linearGradient id="SVGID_00000053538457569359790240000015884393006570034623_" gradientUnits="userSpaceOnUse" x1="1880.0963" y1="2918.3418" x2="1907.2562" y2="2864.0222" gradientTransform="matrix(1 0 0 1 -1140.7335 0)">
					<stop  offset="0" style="stop-color:#53D8FF"/>
					<stop  offset="1" style="stop-color:#3840F7"/>
				</linearGradient>
				<path style="fill:url(#SVGID_00000053538457569359790240000015884393006570034623_);" d="M858.789,2648.083
					c-0.963,0-1.94-0.26-2.824-0.796c-2.561-1.566-3.373-4.904-1.815-7.462c0.913-1.502,22.865-36.983,67.287-58.415
					c2.699-1.295,5.95-0.175,7.258,2.532c1.303,2.701,0.17,5.955-2.534,7.255c-41.412,19.983-62.518,53.941-62.728,54.281
					C862.409,2647.154,860.62,2648.083,858.789,2648.083z"/>
				<g>
					
						<linearGradient id="SVGID_00000134942550045571035250000017795946985035641783_" gradientUnits="userSpaceOnUse" x1="1948.7697" y1="2302.0547" x2="1746.9958" y2="2480.7297" gradientTransform="matrix(1 0 0 1 -1140.7335 0)">
						<stop  offset="0" style="stop-color:#FEBBBA"/>
						<stop  offset="1" style="stop-color:#FF928E"/>
					</linearGradient>
					<path style="fill:url(#SVGID_00000134942550045571035250000017795946985035641783_);" d="M691.369,2292.396
						c6.974,50.448,27.577,105.472,68.793,163.921l15.668-12.773c0,0-18.087-73.383-7.805-156.664
						C742.6,2281.92,712.572,2287.033,691.369,2292.396z"/>
					
						<linearGradient id="SVGID_00000183967475158178353000000009681699602253859982_" gradientUnits="userSpaceOnUse" x1="1075.516" y1="3314.8354" x2="879.8093" y2="3585.0972" gradientTransform="matrix(1 0 0 1 -1140.7335 0)">
						<stop  offset="0" style="stop-color:#4F52FF"/>
						<stop  offset="1" style="stop-color:#4042E2"/>
					</linearGradient>
					<path style="fill:url(#SVGID_00000183967475158178353000000009681699602253859982_);" d="M851.793,2115.221l-24.249-133.616
						c0,0-162.017,123.843-136.176,310.791c21.204-5.363,51.232-10.476,76.656-5.516
						C775.432,2226.887,797.557,2161.759,851.793,2115.221z"/>
				</g>
				<g>
					
						<linearGradient id="SVGID_00000036958247224359392440000014138359417059121845_" gradientUnits="userSpaceOnUse" x1="1365.5039" y1="3524.8284" x2="1169.7963" y2="3795.0916" gradientTransform="matrix(1 0 0 1 -1140.7335 0)">
						<stop  offset="0" style="stop-color:#4F52FF"/>
						<stop  offset="1" style="stop-color:#4042E2"/>
					</linearGradient>
					<path style="fill:url(#SVGID_00000036958247224359392440000014138359417059121845_);" d="M1147.93,2091.184l-62.538,134.686
						c10.112,81.314,53.793,116.472,100.892,129.958c2.937-37.059,12.308-66.999,21.003-87.709
						C1147.106,2205.985,1147.93,2091.184,1147.93,2091.184z"/>
					
						<linearGradient id="SVGID_00000122683803541130705050000017572062660262016677_" gradientUnits="userSpaceOnUse" x1="2327.0173" y1="2318.9553" x2="2485.9221" y2="2318.9553" gradientTransform="matrix(1 0 0 1 -1140.7335 0)">
						<stop  offset="0" style="stop-color:#FEBBBA"/>
						<stop  offset="1" style="stop-color:#FF928E"/>
					</linearGradient>
					<path style="fill:url(#SVGID_00000122683803541130705050000017572062660262016677_);" d="M1207.287,2268.118
						c-8.695,20.71-18.066,50.65-21.003,87.709c125.659,48.754,158.905-45.798,158.905-45.798l-23.224-4.097
						C1269.521,2311.457,1232.887,2294.55,1207.287,2268.118z"/>
				</g>
				
					<linearGradient id="SVGID_00000160870770763933645930000008721430103460089227_" gradientUnits="userSpaceOnUse" x1="2172.5579" y1="1894.3038" x2="2170.8223" y2="2191.0469" gradientTransform="matrix(1 0 0 1 -1140.7335 0)">
					<stop  offset="0" style="stop-color:#FEBBBA"/>
					<stop  offset="1" style="stop-color:#FF928E"/>
				</linearGradient>
				<path style="fill:url(#SVGID_00000160870770763933645930000008721430103460089227_);" d="M1090.311,1924.904l-30.191,110.988
					c-3.392,12.468-16.878,19.164-28.876,14.367c-12.948-5.176-29.374-12.241-43.516-19.876
					c-15.095-8.15-19.818-27.567-10.263-41.814l62.77-93.594L1090.311,1924.904z"/>
			</g>
			
				<linearGradient id="SVGID_00000111889149156466015670000015152332726040477321_" gradientUnits="userSpaceOnUse" x1="1730.8833" y1="2435.3596" x2="2562.9983" y2="2435.3596" gradientTransform="matrix(1 0 0 1 -1140.7335 0)">
				<stop  offset="0" style="stop-color:#09005D"/>
				<stop  offset="1" style="stop-color:#1A0F91"/>
			</linearGradient>
			<path style="fill:url(#SVGID_00000111889149156466015670000015152332726040477321_);" d="M1402.782,2235.759l-773.635,281.573
				c-32.446,11.809-47.956,48.755-33.662,80.186l2.347,5.161c12.647,27.809,45.516,40.007,73.243,27.18l751.19-347.505
				L1402.782,2235.759z"/>
			
				<linearGradient id="SVGID_00000095331726535904897890000014719463581299943065_" gradientUnits="userSpaceOnUse" x1="2517.2063" y1="2066.3848" x2="3281.0117" y2="2066.3848" gradientTransform="matrix(1 0 0 1 -1140.7335 0)">
				<stop  offset="0" style="stop-color:#B37CFF"/>
				<stop  offset="1" style="stop-color:#F895E7"/>
			</linearGradient>
			
				<ellipse style="opacity:0.14;fill:url(#SVGID_00000095331726535904897890000014719463581299943065_);" cx="1758.376" cy="2066.385" rx="381.903" ry="375.013"/>
			
				<linearGradient id="SVGID_00000153692055262625733880000013942791740458796717_" gradientUnits="userSpaceOnUse" x1="2474.1543" y1="2066.3848" x2="3324.0637" y2="2066.3848" gradientTransform="matrix(1 0 0 1 -1140.7335 0)">
				<stop  offset="0" style="stop-color:#09005D"/>
				<stop  offset="1" style="stop-color:#1A0F91"/>
			</linearGradient>
			<path style="fill:url(#SVGID_00000153692055262625733880000013942791740458796717_);" d="M1758.375,1649.096
				c-234.696,0-424.954,186.827-424.954,417.288c0,230.464,190.259,417.29,424.954,417.29c234.696,0,424.955-186.826,424.955-417.29
				C2183.33,1835.923,1993.072,1649.096,1758.375,1649.096z M1758.375,2422.375c-200.22,0-362.53-159.382-362.53-355.991
				c0-196.608,162.311-355.991,362.53-355.991c200.221,0,362.531,159.383,362.531,355.991
				C2120.906,2262.993,1958.596,2422.375,1758.375,2422.375z"/>
			<g>
				<path style="fill:#91B3FA;" d="M1365.73,2118.078c-1.419,0-2.65-1.053-2.831-2.495c-1.269-9.944-2.152-20.009-2.643-29.919
					c-0.076-1.574,1.14-2.915,2.711-2.99c1.873-0.113,2.922,1.136,2.998,2.711c0.476,9.763,1.352,19.681,2.598,29.481
					c0.196,1.563-0.906,2.99-2.469,3.19C1365.972,2118.071,1365.844,2118.078,1365.73,2118.078z M1368.645,2001.395
					c-0.166,0-0.332-0.015-0.506-0.045c-1.548-0.276-2.582-1.759-2.303-3.311c4.817-26.85,12.526-53.251,22.924-78.466l0.008-0.008
					c61.258-148.607,206.343-244.636,369.61-244.636c76.133,0,150.137,21.149,214.03,61.164c1.337,0.838,1.737,2.597,0.899,3.934
					c-0.823,1.344-2.59,1.74-3.934,0.906c-62.98-39.444-135.941-60.296-210.995-60.296c-160.949,0-303.958,94.643-364.332,241.11
					c-0.008,0.008-0.008,0.011-0.008,0.011c-10.246,24.842-17.842,50.842-22.584,77.284
					C1371.205,2000.425,1370.004,2001.395,1368.645,2001.395z"/>
			</g>
			<g>
				
					<linearGradient id="SVGID_00000112599183572533392410000000320239135192804251_" gradientUnits="userSpaceOnUse" x1="1908.2792" y1="3636.407" x2="1762.2087" y2="3829.6462" gradientTransform="matrix(0.9897 -0.1428 0.1428 0.9897 -1279.7882 -1480.9402)">
					<stop  offset="0" style="stop-color:#FEBBBA"/>
					<stop  offset="1" style="stop-color:#FF928E"/>
				</linearGradient>
				<path style="fill:url(#SVGID_00000112599183572533392410000000320239135192804251_);" d="M1156.364,1840.58
					c0.275,1.906-25.182,126.655-25.182,126.655l-70.921-16.049l6.562-121.821C1066.823,1829.365,1151.76,1808.672,1156.364,1840.58
					z"/>
				
					<linearGradient id="SVGID_00000013154958560445901520000004483744989670744224_" gradientUnits="userSpaceOnUse" x1="994.9409" y1="1877.3112" x2="1501.7413" y2="1941.3894">
					<stop  offset="0" style="stop-color:#09005D"/>
					<stop  offset="1" style="stop-color:#1A0F91"/>
				</linearGradient>
				<path style="fill:url(#SVGID_00000013154958560445901520000004483744989670744224_);" d="M1082.774,1856.511l-8.476,63.858
					c-0.109,0.819-0.108,1.628,0.009,2.446c0.715,5.006,4.439,22.046,21.641,17.173c15.609-4.422,29.92-8.224,39.806-5.201
					c4.439,1.358,7.117,5.854,6.188,10.401c-2.316,11.334-8.007,36.776-16.324,58.127c-1.688,4.333-6.432,6.608-10.896,5.306
					c-13.451-3.921-41.587-12.985-62.515-25.579c-2.836-1.707-4.525-4.791-4.385-8.097c0.68-16.121,2.566-65.125,0.979-78.862
					c-1.49-12.894-17.313-20.617-24.188-23.387c-2.254-0.908-4.021-2.684-4.922-4.941c-3.184-7.978-7.573-26.44,15.693-34.005
					c4.869-1.583,7.436-6.833,5.705-11.652c-3.446-9.594-4.899-24.234,13.1-32.3c18.294-8.198,31.957,1.554,39.333,9.479
					c2.983,3.205,7.769,3.693,11.47,1.354c2.107-1.331,4.821-1.768,8.101,0.275c4.419,2.753,10.271,0.877,12.552-3.804
					c4.381-8.992,13.309-18.624,31.219-15.557c31.78,5.443,35.38,40.659,26.996,61.296c-8.384,20.637-42.504,12.777-59.621,2.373
					c-13.014-7.91-29.896,0.381-37.24,4.81C1084.671,1851.428,1083.131,1853.817,1082.774,1856.511z"/>
				
					<linearGradient id="SVGID_00000127724416304483144760000010685500116756705194_" gradientUnits="userSpaceOnUse" x1="1694.3433" y1="3789.4377" x2="1811.5038" y2="3669.2341" gradientTransform="matrix(0.9897 -0.1428 0.1428 0.9897 -1279.7882 -1480.9402)">
					<stop  offset="0" style="stop-color:#FEBBBA"/>
					<stop  offset="1" style="stop-color:#FF928E"/>
				</linearGradient>
				<path style="fill:url(#SVGID_00000127724416304483144760000010685500116756705194_);" d="M1045.946,1919.364
					c0,0,13.065-36.586-0.358-45.546c-13.423-8.96-33.303-4.308-28.926,22.196
					C1022.106,1928.981,1045.946,1919.364,1045.946,1919.364z"/>
			</g>
			
				<linearGradient id="SVGID_00000045578167089379819520000015096544588537043366_" gradientUnits="userSpaceOnUse" x1="2028.4502" y1="2392.0364" x2="1826.6769" y2="2570.7109" gradientTransform="matrix(1 0 0 1 -1140.7335 0)">
				<stop  offset="0" style="stop-color:#FEBBBA"/>
				<stop  offset="1" style="stop-color:#FF928E"/>
			</linearGradient>
			<path style="fill:url(#SVGID_00000045578167089379819520000015096544588537043366_);" d="M769.369,2441.32l73.136-5.96
				l31.673,29.197c0,0-7.493,10.358-30.92,4.404c-23.427-5.954-55.517-7.414-55.517-7.414s-32.341,14.58-32.735-12.7
				L769.369,2441.32z"/>
			
				<linearGradient id="SVGID_00000100372918562544405740000007329935074676237480_" gradientUnits="userSpaceOnUse" x1="2469.04" y1="2300.293" x2="2525.9451" y2="2300.293" gradientTransform="matrix(1 0 0 1 -1140.7335 0)">
				<stop  offset="0" style="stop-color:#FEBBBA"/>
				<stop  offset="1" style="stop-color:#FF928E"/>
			</linearGradient>
			<path style="fill:url(#SVGID_00000100372918562544405740000007329935074676237480_);" d="M1335.874,2327.329
				c6.325,4.941,27.995-5.375,41.255-12.507c6.463-3.476,9.593-11.033,7.374-18.028c-3.191-10.063-8.508-23.052-15.06-24.69
				C1358.573,2269.386,1309.809,2306.966,1335.874,2327.329z"/>
			<path style="fill:#91B3FA;" d="M644.412,2619.035c-0.31,0-0.627-0.049-0.936-0.155c-30.218-10.45-37.247-28.303-37.821-41.441
				c-0.831-19.201,11.235-37.021,30.014-44.345l92.895-36.224c1.442-0.574,3.111,0.147,3.692,1.623
				c0.574,1.469-0.151,3.126-1.623,3.7l-92.895,36.22c-16.498,6.437-27.099,22.018-26.374,38.776
				c0.717,16.536,12.149,28.745,33.985,36.292c1.488,0.517,2.28,2.141,1.759,3.632
				C646.7,2618.295,645.598,2619.035,644.412,2619.035z"/>
			<path style="fill:#91B3FA;" d="M758.215,2491.222c-1.14,0-2.22-0.691-2.658-1.816c-0.574-1.472,0.151-3.126,1.623-3.7
				l12.043-4.693c1.442-0.578,3.118,0.155,3.692,1.624c0.574,1.472-0.151,3.126-1.623,3.7l-12.043,4.693
				C758.91,2491.162,758.563,2491.222,758.215,2491.222z"/>
		</g>
	</g>
</g>
</svg>
