<?xml version="1.0" encoding="utf-8"?>
<!-- Generator: Adobe Illustrator 27.5.0, SVG Export Plug-In . SVG Version: 6.00 Build 0)  -->
<svg version="1.1" xmlns="http://www.w3.org/2000/svg" xmlns:xlink="http://www.w3.org/1999/xlink" x="0px" y="0px"
	 viewBox="0 0 750 500" style="enable-background:new 0 0 750 500;" xml:space="preserve">
<g id="BACKGROUND">
	<g>
		<g>
			<rect style="fill:none;" width="750" height="500"/>
		</g>
		<path style="fill:#DFF1F4;" d="M587.296,223.317c-3.309-2.125-5.293-5.763-5.291-9.695c0-0.021,0-0.043,0-0.064
			c0-87.566-92.68-158.552-207.006-158.552s-207.006,70.986-207.006,158.552c0,2.144,0.072,4.276,0.182,6.399
			c-37.712,22.122-62.039,56.958-62.039,96.152c0,66.852,70.756,121.047,158.039,121.047c22.67,0,44.223-3.658,63.711-10.243
			c30.525-10.315,63.7-10.315,94.225,0c19.488,6.586,41.041,10.243,63.711,10.243c87.282,0,158.039-54.195,158.039-121.047
			C643.862,278.845,621.872,245.521,587.296,223.317z"/>
	</g>
</g>
<g id="OBJECTS">
	<g>
		<g>
			<g>
				<path style="fill:#709632;" d="M72.655,383.234c3.839,28.55,30.096,48.582,58.647,44.743l0,0l0,0
					C127.463,399.427,101.206,379.395,72.655,383.234L72.655,383.234L72.655,383.234z"/>
				<g>
					<path style="fill:none;stroke:#9DC11E;stroke-width:2;stroke-miterlimit:10;" d="M112.636,396.139
						c-31.803-23.723-14.715-67.925-14.715-67.925"/>
					<path style="fill:#EDCB3A;" d="M93.336,328.215c0,2.532,2.053,4.585,4.585,4.585c2.532,0,4.585-2.053,4.585-4.585
						c0-2.532-2.053-4.585-4.585-4.585C95.389,323.63,93.336,325.683,93.336,328.215z"/>
				</g>
				<path style="fill:#5F7A2A;" d="M117.293,355.828c-16.479,23.629-10.683,56.142,12.946,72.621l0,0l0,0
					C146.717,404.82,140.921,372.306,117.293,355.828L117.293,355.828L117.293,355.828z"/>
			</g>
			<g>
				<g>
					<rect x="202.828" y="138.582" style="fill:#FFFFFF;" width="344.343" height="222.074"/>
					<polygon style="fill:#D0EFF4;" points="547.172,154.75 202.828,148.046 202.828,138.582 547.172,138.582 					"/>
					<rect x="202.828" y="103.583" style="fill:#1C77B5;" width="344.343" height="34.999"/>
					<g>
						
							<ellipse transform="matrix(0.7281 -0.6855 0.6855 0.7281 46.842 360.2586)" style="fill:#EDCB3A;" cx="477.546" cy="121.082" rx="8.258" ry="8.258"/>
						
							<ellipse transform="matrix(0.1602 -0.9871 0.9871 0.1602 302.7383 597.9913)" style="fill:#E71C2E;" cx="502.797" cy="121.082" rx="8.258" ry="8.258"/>
						
							<ellipse transform="matrix(0.1602 -0.9871 0.9871 0.1602 323.9443 622.916)" style="fill:#9DC11E;" cx="528.047" cy="121.082" rx="8.258" ry="8.258"/>
					</g>
				</g>
				<g>
					<path style="fill:#ECB220;" d="M296.834,251.884l-36.761-72.106c31.162-15.887,69.259-9.858,93.992,14.875
						c12.382,12.382,20.418,28.455,22.893,45.79L296.834,251.884z"/>
					<path style="fill:#709632;" d="M296.835,251.885l80.109-11.541c0.551,3.822,0.827,7.679,0.827,11.541
						c0,44.4-36.536,80.936-80.936,80.936V251.885z"/>
					<path style="fill:#B7D82B;" d="M296.835,251.885v80.936c-15.27,0-30.233-4.322-43.152-12.463
						c-12.919-8.142-23.274-19.775-29.863-33.551L296.835,251.885z"/>
					
						<ellipse transform="matrix(0.7071 -0.7071 0.7071 0.7071 -91.1685 283.6689)" style="fill:#FFFFFF;" cx="296.834" cy="251.885" rx="42.043" ry="42.043"/>
				</g>
				<g>
					<g>
						<rect x="406.398" y="254.776" style="fill:#83A9FF;" width="22.168" height="17.27"/>
						<rect x="439.498" y="235.805" style="fill:#83A9FF;" width="22.168" height="36.241"/>
						<rect x="472.598" y="211.405" style="fill:#83A9FF;" width="22.168" height="60.641"/>
						<rect x="505.698" y="193.582" style="fill:#83A9FF;" width="22.168" height="78.464"/>
					</g>
					<g>
						<rect x="406.398" y="263.055" style="fill:#DFF1F4;" width="22.168" height="8.991"/>
						<rect x="439.498" y="253.18" style="fill:#DFF1F4;" width="22.168" height="18.866"/>
						<rect x="472.598" y="240.477" style="fill:#DFF1F4;" width="22.168" height="31.569"/>
						<rect x="505.698" y="231.199" style="fill:#DFF1F4;" width="22.168" height="40.847"/>
					</g>
					<g>
						<g>
							<polygon style="fill:#E71C2E;" points="413.32,220.878 409.945,217.502 440.1,187.346 446.996,194.241 475.936,165.302 
								479.311,168.677 446.996,200.993 440.1,194.097 							"/>
						</g>
						<g>
							<polygon style="fill:#E71C2E;" points="482.162,173.052 471.875,162.766 484.834,160.093 							"/>
						</g>
					</g>
				</g>
				<g>
					<g>
						<path style="fill:#83A9FF;" d="M527.423,294.783H406.345c-1.543,0-2.794-1.251-2.794-2.794l0,0
							c0-1.543,1.251-2.794,2.794-2.794h121.078c1.543,0,2.794,1.251,2.794,2.794l0,0
							C530.217,293.531,528.966,294.783,527.423,294.783z"/>
						<path style="fill:#0E5EA0;" d="M527.423,294.783H424.207c-1.543,0-2.794-1.251-2.794-2.794l0,0
							c0-1.543,1.251-2.794,2.794-2.794h103.216c1.543,0,2.794,1.251,2.794,2.794l0,0
							C530.217,293.531,528.966,294.783,527.423,294.783z"/>
						<path style="fill:#EDCB3A;" d="M428.123,291.988c0,2.934-2.379,5.313-5.313,5.313c-2.934,0-5.313-2.379-5.313-5.313
							c0-2.934,2.379-5.313,5.313-5.313C425.744,286.676,428.123,289.054,428.123,291.988z"/>
					</g>
					<g>
						<path style="fill:#83A9FF;" d="M527.423,311.671H406.345c-1.543,0-2.794-1.251-2.794-2.794l0,0
							c0-1.543,1.251-2.794,2.794-2.794h121.078c1.543,0,2.794,1.251,2.794,2.794l0,0
							C530.217,310.42,528.966,311.671,527.423,311.671z"/>
						<path style="fill:#0E5EA0;" d="M527.423,311.671h-60.866c-1.543,0-2.794-1.251-2.794-2.794l0,0
							c0-1.543,1.251-2.794,2.794-2.794h60.866c1.543,0,2.794,1.251,2.794,2.794l0,0
							C530.217,310.42,528.966,311.671,527.423,311.671z"/>
						<path style="fill:#EDCB3A;" d="M469.076,308.877c0,2.934-2.379,5.313-5.313,5.313c-2.934,0-5.313-2.379-5.313-5.313
							c0-2.934,2.379-5.313,5.313-5.313C466.697,303.564,469.076,305.943,469.076,308.877z"/>
					</g>
					<g>
						<path style="fill:#83A9FF;" d="M527.423,328.56H406.345c-1.543,0-2.794-1.251-2.794-2.794l0,0
							c0-1.543,1.251-2.794,2.794-2.794h121.078c1.543,0,2.794,1.251,2.794,2.794l0,0
							C530.217,327.309,528.966,328.56,527.423,328.56z"/>
						<path style="fill:#0E5EA0;" d="M527.423,328.56h-78.772c-1.543,0-2.794-1.251-2.794-2.794l0,0
							c0-1.543,1.251-2.794,2.794-2.794h78.772c1.543,0,2.794,1.251,2.794,2.794l0,0C530.217,327.309,528.966,328.56,527.423,328.56
							z"/>
						<circle style="fill:#EDCB3A;" cx="447.254" cy="325.766" r="5.313"/>
					</g>
				</g>
			</g>
			<g>
				<path style="fill:#709632;" d="M507.523,371.116c-6.827,27.987,10.326,56.209,38.312,63.036l0,0v0
					C552.662,406.166,535.509,377.944,507.523,371.116L507.523,371.116L507.523,371.116z"/>
				<path style="fill:#9DC11E;" d="M679.242,443.855h-229.81c0,0,30.361-38.96,93.432-31.776c0,0,27.419-25.959,74.25-24.215
					C674.966,390.02,679.242,443.855,679.242,443.855z"/>
				<path style="fill:#5F7A2A;" d="M582.777,357.353c6.827,27.987-10.326,56.209-38.312,63.036l0,0l0,0
					C537.638,392.402,554.791,364.18,582.777,357.353L582.777,357.353L582.777,357.353z"/>
			</g>
			<path style="fill:#9DC11E;" d="M247.361,431.123c-2.473,0-4.775,0.707-6.739,1.911c-4.284-11.049-14.816-18.977-27.264-19.447
				c-9.289-12.431-24.121-20.479-40.834-20.479c-14.584,0-27.727,6.139-37.014,15.961c-1.69-0.248-3.418-0.381-5.177-0.381
				c-13.228,0-24.751,7.268-30.816,18.023c-1.327-0.315-2.711-0.487-4.134-0.487c-9.845,0-17.826,7.981-17.826,17.826h182.731
				C260.288,436.91,254.501,431.123,247.361,431.123z"/>
			<g>
				<g>
					<rect x="155.763" y="71.756" style="fill:#FFFFFF;" width="139.255" height="89.808"/>
					<g>
						<path style="fill:#D0EFF4;" d="M294.018,72.756v87.809H156.763V72.756H294.018 M295.018,71.756H155.763v89.809h139.255V71.756
							L295.018,71.756z"/>
					</g>
					<polygon style="fill:#D0EFF4;" points="295.018,78.294 155.763,75.583 155.763,71.756 295.018,71.756 					"/>
					<rect x="155.763" y="57.602" style="fill:#0E5EA0;" width="139.255" height="14.154"/>
					<g>
						<path style="fill:#EDCB3A;" d="M270.201,64.679c0,1.844-1.495,3.34-3.34,3.34c-1.844,0-3.34-1.495-3.34-3.34
							c0-1.844,1.495-3.34,3.34-3.34C268.706,61.339,270.201,62.835,270.201,64.679z"/>
						<circle style="fill:#E71C2E;" cx="277.073" cy="64.679" r="3.34"/>
						<path style="fill:#9DC11E;" d="M290.624,64.679c0,1.844-1.495,3.34-3.34,3.34c-1.844,0-3.34-1.495-3.34-3.34
							c0-1.844,1.495-3.34,3.34-3.34C289.129,61.339,290.624,62.835,290.624,64.679z"/>
					</g>
				</g>
				<g>
					<g>
						<path style="fill:#E71C2E;" d="M257.231,85.796h-63.68c-5.887,0-10.66,4.773-10.66,10.66v37.087
							c0,5.887,4.773,10.66,10.66,10.66h3.177v7.912l7.912-7.912h52.592c5.887,0,10.66-4.773,10.66-10.66V96.456
							C267.891,90.568,263.118,85.796,257.231,85.796z"/>
					</g>
					<g>
						<rect x="195.169" y="102.476" style="fill:#FFFFFF;" width="60.445" height="2"/>
						<rect x="195.169" y="110.054" style="fill:#FFFFFF;" width="60.445" height="2"/>
						<rect x="195.169" y="117.633" style="fill:#FFFFFF;" width="60.445" height="2"/>
						<rect x="195.169" y="125.211" style="fill:#FFFFFF;" width="28.445" height="2"/>
					</g>
				</g>
			</g>
			<g>
				<g>
					<path style="fill:none;stroke:#FFB692;stroke-width:9;stroke-miterlimit:10;" d="M223.329,224.605
						c-34.444,12.844-46.175,16.758-65.715-15.002"/>
					<path style="fill:#FF8B0D;" d="M164.813,230.319l-12.743-11.521c-3.418-3.408-3.426-8.94-0.019-12.357h0
						c3.407-3.418,8.94-3.426,12.357-0.019l12.743,11.521L164.813,230.319z"/>
					<g>
						<path style="fill:#FFB692;" d="M223.271,224.995c-4.892-5.1,3.686-10.763,3.686-10.763l2.259-6.813c0,0,5.98,2.276,2.689,7.78
							c0,0,8.332-3.542,11.915-1.935c1.682,0.754,4.44,7.359,4.122,11.189c-0.067,0.812-0.785,1.403-1.595,1.315
							c-1.945-0.212-5.857-0.252-9.156,2.134C232.593,231.227,224.718,233.103,223.271,224.995z"/>
						<path style="fill:#D88D87;" d="M231.905,215.2c0,0,2.364,4.698-2.242,8.732c0,0,3.431-4.257,1.866-8.568L231.905,215.2z"/>
						<path style="fill:#D88D87;" d="M235.338,225.106c0,0,0.294-4.253-1.592-8.079
							C233.746,217.026,237.734,219.322,235.338,225.106z"/>
						<g>
							<path style="fill:#D88D87;" d="M235.402,223.491l0.059-0.342c0,0,6.977-1.893,12.501,0.454
								c0.003,0.121,0.003,0.24,0.001,0.357C245.788,223.293,240.523,222.034,235.402,223.491z"/>
							<path style="fill:#D88D87;" d="M234.893,218.711l-0.307-0.469c0,0,6.099-3.885,11.305-2.229
								c0.6,1.216,1.156,2.695,1.542,4.176c-1.696-0.471-6.809-1.537-11.909,0.936l-0.147-0.405c0,0,6.123-3.93,11.712-1.28
								l-0.961-2.906C246.126,216.535,240.497,214.954,234.893,218.711z"/>
						</g>
					</g>
				</g>
				<path style="fill:#83A9FF;" d="M241.747,248.878c0-16.362,9.353-30.531,22.999-37.479l-17.62-34.677
					c-20.143,10.235-35.107,28.451-41.237,50.198c-5.345,18.962-3.587,39.237,4.942,56.996l35.052-16.833
					C243.232,261.574,241.747,255.399,241.747,248.878z"/>
				<g>
					<g>
						<g>
							
								<line style="fill:none;stroke:#284159;stroke-width:13;stroke-miterlimit:10;" x1="158.609" y1="289.194" x2="158.609" y2="442.926"/>
							<g>
								<path style="fill:#FF8B0D;" d="M168.031,419.064l-0.087,9.945c0,0,12.419,0.176,15.494,14.105l-34.135-0.03l0.545-24.18
									L168.031,419.064z"/>
								<path style="fill:#19283B;" d="M158.98,429.552c0.041,2.158-1.28,3.933-2.952,3.965c-1.672,0.032-3.06-1.691-3.102-3.849
									c-0.041-2.158,1.28-3.933,2.952-3.965C157.551,425.671,158.939,427.395,158.98,429.552z"/>
							</g>
						</g>
						<path style="fill:#284159;" d="M154.072,263.245h-12.892c-9.51,0-17.29,7.78-17.29,17.29v0c0,9.51,7.781,17.29,17.29,17.29
							h12.892c9.51,0,17.29-7.781,17.29-17.29v0C171.362,271.026,163.581,263.245,154.072,263.245z"/>
						<g>
							<path style="fill:#ECB220;" d="M169.555,270.844c0.01,1.895-1.057,3.644-2.767,4.461c-3.785,1.809-9.281,3.789-16.104,4.268
								c-9.604,0.674-17.317-1.944-21.923-4.063c-1.735-0.798-2.838-2.542-2.848-4.452c-0.092-17.223-0.185-33.005-0.277-50.125
								c-0.053-9.888,7.92-17.949,17.808-18.001l9.021-0.048c9.234-0.049,16.759,7.396,16.807,16.63L169.555,270.844z"/>
						</g>
						<g>
							<path style="fill:#FFB692;" d="M136.255,204.301c-0.644,3.774,3.949,7.707,10.258,8.783
								c6.309,1.076,11.945-1.111,12.589-4.885c0.644-3.774-3.949-7.707-10.258-8.783
								C142.536,198.339,136.899,200.526,136.255,204.301z"/>
						</g>
						<path style="fill:#FFB692;" d="M147.318,147.844l-0.843,0.005c-5.405,0.029-9.75,6.895-9.705,15.337l0.222,41.852
							l20.415-0.108l-0.222-41.852C157.14,154.636,152.723,147.815,147.318,147.844z"/>
						<path style="fill:#D88D87;" d="M147.318,151.4l-0.843,0.004c-5.405,0.029-9.752,6.397-9.711,14.223l0.152,28.594
							c0.03,5.637,4.624,10.183,10.261,10.153l0,0c5.637-0.03,10.183-4.624,10.153-10.261l-0.152-28.594
							C157.138,157.692,152.723,151.371,147.318,151.4z"/>
						<path style="fill:#D88D87;" d="M151.731,185.773c-0.16,0.957-2.143,1.422-4.429,1.04c-2.286-0.383-4.009-1.468-3.849-2.425
							c0.16-0.957,2.143-1.422,4.428-1.04C150.168,183.731,151.891,184.816,151.731,185.773z"/>
						<g>
							
								<line style="fill:none;stroke:#284159;stroke-width:13;stroke-miterlimit:10;" x1="137.498" y1="289.194" x2="137.498" y2="442.926"/>
							<g>
								<path style="fill:#ECB220;" d="M146.921,419.064l-0.087,9.945c0,0,12.419,0.176,15.494,14.105l-34.135-0.03l0.545-24.18
									L146.921,419.064z"/>
								<path style="fill:#19283B;" d="M137.87,429.552c0.041,2.158-1.281,3.933-2.952,3.965c-1.672,0.032-3.06-1.691-3.102-3.849
									c-0.041-2.158,1.28-3.933,2.952-3.965C136.44,425.671,137.828,427.395,137.87,429.552z"/>
							</g>
						</g>
						<g>
							<path style="fill:#D88D87;" d="M126.924,175.807h42.834c1.874,0,3.393-1.519,3.393-3.393l0,0
								c0-1.874-1.519-3.393-3.393-3.393h-42.834c-1.874,0-3.393,1.519-3.393,3.393l0,0
								C123.531,174.288,125.05,175.807,126.924,175.807z"/>
							<path style="fill:#AA635F;" d="M171.375,172.414L171.375,172.414c0-0.893-0.724-1.617-1.617-1.617h-42.834
								c-0.893,0-1.617,0.724-1.617,1.617l0,0c0,0.893,0.724,1.617,1.617,1.617h42.834
								C170.651,174.031,171.375,173.307,171.375,172.414z"/>
							<path style="fill:#FFB692;" d="M148.341,201.476L148.341,201.476c10.461,0,18.941-8.48,18.941-18.94v-17.98
								c0-10.029-8.13-18.158-18.158-18.158h-1.564c-10.029,0-18.158,8.13-18.158,18.158v17.98
								C129.401,192.996,137.88,201.476,148.341,201.476z"/>
							<g>
								<path style="fill:#D88D87;" d="M156.881,168.298h4.185c0.953,0,1.725,0.772,1.725,1.725c0,0.953-0.772,1.725-1.725,1.725
									h-4.185c-0.952,0-1.725-0.772-1.725-1.725C155.156,169.07,155.928,168.298,156.881,168.298z"/>
								<path style="fill:#D88D87;" d="M138.073,168.298h4.185c0.952,0,1.725,0.772,1.725,1.725c0,0.953-0.772,1.725-1.725,1.725
									h-4.185c-0.953,0-1.725-0.772-1.725-1.725C136.348,169.07,137.12,168.298,138.073,168.298z"/>
							</g>
							<g>
								<path style="fill:#252538;" d="M157.967,167.877c1.224,0,2.217,0.992,2.217,2.217c0,1.224-0.992,2.217-2.217,2.217
									c-1.224,0-2.217-0.993-2.217-2.217C155.751,168.87,156.743,167.877,157.967,167.877z"/>
								<path style="fill:#252538;" d="M141.171,167.877c1.224,0,2.217,0.992,2.217,2.217c0,1.224-0.993,2.217-2.217,2.217
									s-2.217-0.993-2.217-2.217C138.955,168.87,139.947,167.877,141.171,167.877z"/>
							</g>
							<g>
								<path style="fill:#252538;" d="M137.466,163.776l3.842-1.21c0.842-0.265,1.74,0.202,2.005,1.044
									c0.265,0.842-0.202,1.74-1.044,2.005l-3.842,1.21c-0.842,0.265-1.74-0.202-2.005-1.044
									C136.157,164.939,136.624,164.041,137.466,163.776z"/>
								<path style="fill:#252538;" d="M157.83,162.566l3.842,1.21c0.842,0.265,1.31,1.163,1.044,2.005
									c-0.265,0.842-1.163,1.31-2.005,1.044l-3.842-1.21c-0.842-0.265-1.31-1.163-1.044-2.005
									C156.09,162.768,156.988,162.3,157.83,162.566z"/>
							</g>
							<path style="fill:#D88D87;" d="M143.996,191.195c0,1.005,1.946,1.819,4.345,1.819c2.4,0,4.345-0.814,4.345-1.819
								c0-1.005-1.945-1.819-4.345-1.819C145.941,189.376,143.996,190.19,143.996,191.195z"/>
							<path style="fill:#8C5C53;" d="M143.775,180.475l-0.446,0.351c0.229,0.275,3.342,3.838,9.766,3.3l-0.545-0.479l0.391-0.444
								l1.547,1.361l-0.653,0.081c-0.735,0.091-1.429,0.133-2.086,0.133c-5.848,0-8.627-3.265-8.885-3.584l-0.662,0.521
								C142.2,181.714,142.02,180.014,143.775,180.475z"/>
							<g>
								<path style="fill:#D88D87;" d="M150.102,179.302L150.102,179.302c1.742,0,3.155-1.412,3.155-3.154v-5.115
									c0-1.742-1.412-3.155-3.155-3.155l0,0c-1.742,0-3.154,1.412-3.154,3.155v5.115
									C146.947,177.889,148.359,179.302,150.102,179.302z"/>
								<path style="fill:#F79C97;" d="M148.426,177.511L148.426,177.511c0.46,0,0.833-0.373,0.833-0.833v-5.921
									c0-0.46-0.373-0.833-0.833-0.833l0,0c-0.46,0-0.833,0.373-0.833,0.833v5.921
									C147.593,177.137,147.966,177.511,148.426,177.511z"/>
							</g>
						</g>
					</g>
					<path style="fill:#252538;" d="M175.402,136.046c0-4.083-3.371-7.379-7.483-7.256c-3.973,0.119-7.036,3.586-7.036,7.56v0.135
						c0,3.61-2.91,6.523-6.5,6.523h-15.574c-6.382,0-11.556,5.174-11.556,11.555v16.233h1.624c1.803,0,3.265-1.462,3.265-3.265
						v-9.246c0-1.503,1.219-2.722,2.722-2.722h27.741c1.503,0,2.722,1.219,2.722,2.722v9.085c0,1.503,1.219,2.722,2.722,2.722h1.395
						v-13.922c0-1.518,0.603-2.974,1.676-4.047h0c2.741-2.741,4.281-6.459,4.281-10.335V136.046z"/>
				</g>
				<g>
					<path style="fill:none;stroke:#FFB692;stroke-width:9;stroke-miterlimit:10;" d="M134.623,220.973
						c24.588,50.141,87.702,12.743,87.702,12.743"/>
					<g>
						<g>
							<path style="fill:#FFB692;" d="M216.857,232.738c-4.361-5.699,4.933-10.445,4.933-10.445l3.048-6.62
								c0,0,5.778,2.971,1.836,8.154c0,0,6.407-1.01,9.818-4.461c4.163-4.212,6.883,9.487,4.115,14.824
								c-1.503,2.899-6.203,1.662-9.802,3.698C225.791,240.725,217.402,241.083,216.857,232.738z"/>
						</g>
						<g>
							<path style="fill:#D88D87;" d="M229.738,230.676l0.085,0.523c0,0,6.997-0.272,11.897-3.481
								c-0.008-0.32-0.021-0.641-0.043-0.961C239.831,228.227,236.108,230.356,229.738,230.676z"/>
							<path style="fill:#D88D87;" d="M230.648,234.492c0,0,6.312-0.178,10.617-2.088c0.08-0.312,0.148-0.638,0.207-0.973
								c-1.818,0.852-5.625,2.293-10.928,2.503L230.648,234.492z"/>
							<path style="fill:#D88D87;" d="M228.875,227.161c0,0,7.143-0.059,12.018-4.895c-0.13-0.43-0.275-0.834-0.431-1.207
								c-1.849,1.946-5.525,4.842-11.623,5.74L228.875,227.161z"/>
						</g>
					</g>
					<path style="fill:#FF8B0D;" d="M150.271,229.749l-9.266-14.466c-2.798-3.932-8.254-4.851-12.186-2.053v0
						c-3.932,2.798-4.851,8.254-2.053,12.186l9.266,14.466L150.271,229.749z"/>
				</g>
			</g>
			<g>
				<g>
					<rect x="357.865" y="81.476" style="fill:#EDCB3A;" width="64.945" height="40.718"/>
					<polygon style="fill:#C6711C;" points="422.81,81.476 421.703,81.476 390.347,100.909 360.488,81.476 357.865,81.476 
						357.865,81.635 379.633,95.802 357.865,117.569 357.865,119.78 380.972,96.673 389.911,102.491 390.327,102.761 
						399.711,96.946 422.81,120.045 422.81,117.834 401.076,96.1 422.81,82.629 					"/>
				</g>
				<g>
					<path style="fill:#E71C2E;" d="M419.227,80.777c0,4.322-3.503,7.825-7.825,7.825c-4.321,0-7.825-3.503-7.825-7.825
						c0-4.321,3.503-7.825,7.825-7.825C415.724,72.952,419.227,76.456,419.227,80.777z"/>
					<polygon style="fill:#FFFFFF;" points="414.349,79.962 412.162,79.962 412.162,77.831 410.532,77.831 410.532,79.962 
						408.457,79.962 408.457,81.592 410.532,81.592 410.532,83.723 412.162,83.723 412.162,81.592 414.349,81.592 					"/>
				</g>
			</g>
			<g>
				<g>
					<g>
						<path style="fill:none;stroke:#FFB692;stroke-width:9;stroke-miterlimit:10;" d="M595.538,218.177
							c-51.46,17.628-59.772-38.875-59.772-38.875"/>
						<path style="fill:#FF8B0D;" d="M580.789,211.508l16.773-3.713c4.757-0.812,9.272,2.386,10.084,7.143l0,0
							c0.812,4.757-2.386,9.272-7.143,10.083l-16.773,3.713L580.789,211.508z"/>
						<g>
							<path style="fill:#FFB692;" d="M540.024,181.248c6.633-2.438,1.409-11.289,1.409-11.289l0.958-7.114
								c0,0-6.373-0.578-5.829,5.812c0,0-5.935-6.838-9.858-6.966c-1.842-0.06-7.218,4.666-8.612,8.247
								c-0.296,0.759,0.09,1.605,0.857,1.881c1.841,0.662,5.374,2.343,7.292,5.934C528.914,182.759,535.167,187.9,540.024,181.248z"
								/>
							<path style="fill:#D88D87;" d="M536.562,168.658c0,0-4.185,3.184-1.816,8.83c0,0-1.216-5.331,2.081-8.518L536.562,168.658z"
								/>
							<path style="fill:#D88D87;" d="M529.131,176.054c0,0,1.602-3.95,4.975-6.562
								C534.106,169.492,529.515,169.806,529.131,176.054z"/>
							<g>
								<path style="fill:#D88D87;" d="M529.782,174.575l0.097-0.334c0,0-5.44-4.762-11.433-5.076
									c-0.055,0.107-0.108,0.214-0.157,0.32C520.535,169.842,525.819,171.019,529.782,174.575z"/>
								<path style="fill:#D88D87;" d="M532.337,170.503l0.482-0.287c0,0-3.777-6.167-9.182-6.962
									c-1.073,0.829-2.221,1.915-3.218,3.077c1.731,0.321,6.793,1.606,10.292,6.065l0.31-0.3c0,0-3.779-6.217-9.963-6.287
									l2.139-2.19C523.196,163.62,528.948,164.668,532.337,170.503z"/>
							</g>
						</g>
					</g>
					<g>
						<path style="fill:#83A9FF;" d="M501.599,172.345c3.89,8.447,13.891,12.142,22.339,8.252
							c8.447-3.89,12.142-13.891,8.252-22.339c-3.89-8.447-13.891-12.142-22.339-8.252
							C501.403,153.896,497.709,163.898,501.599,172.345z M505.54,170.53c-2.887-6.271-0.145-13.695,6.126-16.583
							c6.271-2.887,13.695-0.145,16.582,6.126c2.888,6.271,0.145,13.695-6.126,16.583
							C515.852,179.544,508.427,176.801,505.54,170.53z"/>
						<path style="fill:#83A9FF;" d="M506.498,170.089c2.644,5.742,9.441,8.253,15.183,5.609c5.741-2.644,8.253-9.441,5.609-15.183
							c-2.644-5.741-9.442-8.253-15.183-5.609C506.366,157.55,503.854,164.348,506.498,170.089z M507.373,169.686
							c-2.421-5.258-0.122-11.484,5.137-13.905c5.258-2.421,11.484-0.122,13.905,5.137c2.421,5.258,0.122,11.484-5.137,13.905
							C516.02,177.244,509.794,174.944,507.373,169.686z"/>
						<g>
							<g>
								<polygon style="fill:#83A9FF;" points="503.806,146.728 511.29,143.282 517.013,150.995 505.946,156.091 								"/>
								<polygon style="fill:#83A9FF;" points="529.982,183.875 522.498,187.322 516.775,179.609 527.842,174.513 								"/>
							</g>
							<g>
								<polygon style="fill:#83A9FF;" points="498.32,178.39 494.874,170.906 502.587,165.183 507.683,176.25 								"/>
								<polygon style="fill:#83A9FF;" points="535.468,152.214 538.914,159.697 531.201,165.421 526.105,154.354 								"/>
							</g>
						</g>
						<g>
							<g>
								<polygon style="fill:#83A9FF;" points="494.506,161.423 497.361,153.695 506.861,155.101 502.639,166.53 								"/>
								<polygon style="fill:#83A9FF;" points="539.282,169.181 536.427,176.909 526.927,175.503 531.149,164.074 								"/>
							</g>
							<g>
								<polygon style="fill:#83A9FF;" points="513.015,187.69 505.287,184.835 506.693,175.335 518.122,179.557 								"/>
								<polygon style="fill:#83A9FF;" points="520.773,142.914 528.501,145.769 527.095,155.269 515.666,151.047 								"/>
							</g>
						</g>
					</g>
				</g>
				<g>
					<g>
						<circle style="fill:#54321A;" cx="632.924" cy="145.367" r="9.058"/>
						<circle style="fill:#ECB220;" cx="628.528" cy="149.762" r="5.097"/>
						<g>
							<g>
								
									<line style="fill:none;stroke:#284159;stroke-width:13;stroke-miterlimit:10;" x1="600.585" y1="290.353" x2="600.585" y2="442.928"/>
								<g>
									<path style="fill:#FF8B0D;" d="M591.21,419.245l0.087,9.87c0,0-12.356,0.175-15.415,13.999l33.962-0.03l-0.543-23.998
										L591.21,419.245z"/>
									<path style="fill:#19283B;" d="M600.215,429.654c-0.041,2.142,1.274,3.904,2.937,3.935c1.663,0.032,3.045-1.679,3.086-3.82
										c0.041-2.142-1.274-3.904-2.937-3.935S600.256,427.513,600.215,429.654z"/>
								</g>
							</g>
							<path style="fill:#284159;" d="M605.099,264.599h12.827c9.461,0,17.203,7.722,17.203,17.16v0
								c0,9.438-7.741,17.16-17.203,17.16h-12.827c-9.461,0-17.203-7.722-17.203-17.16v0
								C587.896,272.322,595.637,264.599,605.099,264.599z"/>
							<g>
								
									<line style="fill:none;stroke:#284159;stroke-width:13;stroke-miterlimit:10;" x1="621.588" y1="290.353" x2="621.588" y2="442.928"/>
								<g>
									<path style="fill:#ECB220;" d="M612.213,419.245l0.087,9.87c0,0-12.356,0.175-15.415,13.999l33.962-0.03l-0.543-23.998
										L612.213,419.245z"/>
									<path style="fill:#19283B;" d="M621.218,429.654c-0.041,2.142,1.274,3.904,2.937,3.935c1.663,0.032,3.045-1.679,3.086-3.82
										s-1.274-3.904-2.937-3.935C622.641,425.802,621.259,427.513,621.218,429.654z"/>
								</g>
							</g>
							<g>
								<g>
									<path style="fill:#ECB220;" d="M585.055,277.31c4.747,2.311,13.5,5.815,24.999,6.161
										c11.783,0.355,20.917-2.772,25.809-4.848c-1.788-7.797-3.575-15.593-5.363-23.39l4.185-32.495
										c0.216-8.317-3.74-15.167-12.078-15.382l-16.247-0.42c-10.749-0.278-16.337,3.476-16.615,14.199l1.852,34.229
										L585.055,277.31z"/>
								</g>
								<path style="fill:none;stroke:#A83B5D;stroke-miterlimit:10;" d="M635.253,187.213"/>
								<path style="fill:#FFB692;" d="M623.746,209.609c0.281,4.226-5.232,8.03-12.313,8.498
									c-7.081,0.468-13.048-2.579-13.328-6.804c-0.281-4.226,5.232-8.031,12.312-8.498
									C617.497,202.337,623.465,205.383,623.746,209.609z"/>
								<g>
									<path style="fill:#54321A;" d="M619.25,189.158h-16.267c-8.182,0-14.815-6.633-14.815-14.815v-10.628
										c0-12.38,10.036-22.417,22.417-22.417h1.064c12.38,0,22.417,10.036,22.417,22.417v10.628
										C634.065,182.525,627.432,189.158,619.25,189.158z"/>
									<path style="fill:#D88D87;" d="M617.578,149.899h-12.924c-0.311,0-0.563-0.251-0.563-0.561l0,0
										c0-0.31,0.252-0.561,0.563-0.561h12.924c0.311,0,0.563,0.251,0.563,0.561l0,0
										C618.141,149.648,617.889,149.899,617.578,149.899z"/>
									<path style="fill:#D88D87;" d="M631.346,179.499h-40.459c-1.878,0-3.4-1.522-3.4-3.4v-0.144c0-1.878,1.522-3.4,3.4-3.4
										h40.459c1.878,0,3.4,1.522,3.4,3.4v0.144C634.746,177.977,633.224,179.499,631.346,179.499z"/>
									<path style="fill:#AA635F;" d="M589.308,176.061v-0.069c0-0.895,0.725-1.62,1.62-1.62h40.375c0.895,0,1.62,0.725,1.62,1.62
										v0.069c0,0.895-0.725,1.62-1.62,1.62h-40.375C590.034,177.681,589.308,176.956,589.308,176.061z"/>
									<path style="fill:#FFB692;" d="M611.116,171.175L611.116,171.175c-5.956,0-10.784,4.816-10.784,10.757v29.119H621.9
										v-29.119C621.9,175.992,617.072,171.175,611.116,171.175z"/>
									<path style="fill:#D88D87;" d="M600.332,175.382v18.362c0,5.941,4.828,10.758,10.784,10.758l0,0
										c5.956,0,10.784-4.816,10.784-10.758v-18.362"/>
									<path style="fill:#FFB692;" d="M611.116,200.066L611.116,200.066c-4.458,0-17.609-5.268-17.609-15.973l-1.822-20.143
										c0-10.263,8.34-18.583,18.629-18.583h1.605c10.288,0,18.629,8.32,18.629,18.583l-1.822,20.143
										C628.725,194.798,617.457,200.066,611.116,200.066z"/>
									<g>
										<path style="fill:#252538;" d="M604.891,183.29c2.027,0.198,4.892,0.341,7.713,0.019c1.856-0.212,2.771,2.307,1.402,3.916
											c-1.457,1.712-3.604,3.114-6.611,2.614c-2.464-0.41-3.839-1.441-4.589-2.585
											C601.742,185.635,603.084,183.114,604.891,183.29z"/>
										<path style="fill:#FF9292;" d="M607.394,189.839c3.007,0.501,5.154-0.902,6.611-2.614
											c0.205-0.242,0.353-0.504,0.461-0.774c-0.922-0.739-2.265-1.288-4.236-1.364c-3.044-0.117-4.981,1.548-6.192,3.432
											c-0.002,0.004-0.004,0.008-0.006,0.011C604.827,189.117,605.91,189.592,607.394,189.839z"/>
										<path style="fill:#FFABAB;" d="M606.61,187.081c0.161,0.57,1.293,0.776,2.53,0.461c1.236-0.315,2.108-1.032,1.947-1.602
											c-0.161-0.57-1.294-0.776-2.53-0.461C607.321,185.794,606.449,186.511,606.61,187.081z"/>
										<path style="fill:#FFFFFF;" d="M604.891,183.29c2.027,0.198,4.892,0.341,7.713,0.019c1.14-0.13,1.922,0.771,2.041,1.857
											c-1.855,0.952-4.436,1.444-7.248,1.236c-1.803-0.133-3.47-0.538-4.881-1.131
											C602.799,184.14,603.752,183.179,604.891,183.29z"/>
									</g>
									<g>
										<path style="fill:#D88D87;" d="M601.96,170.789h-4.293c-0.977,0-1.77,0.79-1.77,1.765c0,0.975,0.792,1.765,1.77,1.765
											h4.293c0.977,0,1.77-0.79,1.77-1.765C603.73,171.579,602.937,170.789,601.96,170.789z"/>
										<path style="fill:#D88D87;" d="M621.256,170.789h-4.293c-0.977,0-1.769,0.79-1.769,1.765c0,0.975,0.792,1.765,1.769,1.765
											h4.293c0.977,0,1.77-0.79,1.77-1.765C623.025,171.579,622.233,170.789,621.256,170.789z"/>
									</g>
									<g>
										<path style="fill:#252538;" d="M599.897,172.465c-1.256,0-2.274,1.016-2.274,2.269c0,1.253,1.018,2.268,2.274,2.268
											c1.256,0,2.274-1.016,2.274-2.268C602.171,173.48,601.153,172.465,599.897,172.465z"/>
										<path style="fill:#252538;" d="M617.128,172.465c-1.256,0-2.274,1.016-2.274,2.269c0,1.253,1.018,2.268,2.274,2.268
											c1.256,0,2.274-1.016,2.274-2.268C619.402,173.48,618.384,172.465,617.128,172.465z"/>
										<polygon style="fill:#252538;" points="618.919,174.609 621.069,172.465 617.069,172.465 										"/>
										<polygon style="fill:#252538;" points="597.748,174.609 599.897,172.465 595.897,172.465 										"/>
									</g>
									<g>
										<path style="fill:#54321A;" d="M622.365,168.759l-3.942-1.239c-0.864-0.271-1.785,0.207-2.057,1.069
											c-0.272,0.862,0.208,1.78,1.072,2.052l3.942,1.239c0.864,0.271,1.785-0.207,2.057-1.069
											C623.708,169.949,623.228,169.031,622.365,168.759z"/>
										<path style="fill:#54321A;" d="M601.474,167.52l-3.942,1.239c-0.864,0.271-1.344,1.19-1.072,2.052
											c0.272,0.862,1.193,1.34,2.057,1.069l3.942-1.239c0.864-0.271,1.344-1.19,1.071-2.052
											C603.259,167.727,602.338,167.249,601.474,167.52z"/>
									</g>
									<path style="fill:#D88D87;" d="M615.048,194.875c0.084,1.025-1.836,2.018-4.29,2.219c-2.454,0.201-4.511-0.467-4.596-1.491
										c-0.084-1.025,1.836-2.018,4.29-2.219C612.906,193.182,614.964,193.85,615.048,194.875z"/>
									<path style="fill:#D88D87;" d="M612.014,181.487h-6.885v-0.5c0-1.896,1.541-3.434,3.442-3.434l0,0
										c1.901,0,3.442,1.537,3.442,3.434V181.487z"/>
									<path style="fill:#54321A;" d="M612.735,141.298h-3.238c-11.78,0-21.33,9.526-21.33,21.277v3.948h21.399l3.565-3.556v3.556
										h0.288l12.071-12.041v12.041h8.575v-3.948C634.065,150.824,624.515,141.298,612.735,141.298z"/>
									<path style="fill:#875330;" d="M627.298,147.036c-0.445-0.415-0.908-0.81-1.387-1.187l-8.277,8.257v-4.867l-10.312,10.287
										h-18.933c-0.086,0.599-0.148,1.204-0.183,1.818h19.872l7.734-7.716v4.867L627.298,147.036z"/>
								</g>
							</g>
						</g>
					</g>
					<g>
						<g>
							<g>
								<rect x="485.804" y="237.684" style="fill:#FFFFFF;" width="108.8" height="70.167"/>
								<g>
									<path style="fill:#D0EFF4;" d="M593.604,238.684v68.167h-106.8v-68.167H593.604 M594.604,237.684h-108.8v70.167h108.8
										V237.684L594.604,237.684z"/>
								</g>
								<polygon style="fill:#D0EFF4;" points="594.604,242.792 485.804,240.674 485.804,237.684 594.604,237.684 								"/>
								<rect x="485.804" y="226.625" style="fill:#0E5EA0;" width="108.8" height="11.058"/>
								<g>
									<path style="fill:#EDCB3A;" d="M575.214,232.155c0,1.441-1.168,2.609-2.609,2.609c-1.441,0-2.609-1.168-2.609-2.609
										c0-1.441,1.168-2.609,2.609-2.609C574.046,229.545,575.214,230.714,575.214,232.155z"/>
									<path style="fill:#E71C2E;" d="M583.192,232.155c0,1.441-1.168,2.609-2.609,2.609c-1.441,0-2.609-1.168-2.609-2.609
										c0-1.441,1.168-2.609,2.609-2.609C582.024,229.545,583.192,230.714,583.192,232.155z"/>
									<path style="fill:#9DC11E;" d="M591.171,232.155c0,1.441-1.168,2.609-2.609,2.609c-1.441,0-2.609-1.168-2.609-2.609
										c0-1.441,1.168-2.609,2.609-2.609C590.003,229.545,591.171,230.714,591.171,232.155z"/>
								</g>
							</g>
						</g>
						<g>
							
								<ellipse transform="matrix(0.1646 -0.9864 0.9864 0.1646 163.1998 738.225)" style="fill:#E71C2E;" cx="517.411" cy="272.768" rx="18.355" ry="18.355"/>
							<polygon style="fill:#FFFFFF;" points="514.004,265.539 514.004,279.996 523.633,272.768 							"/>
						</g>
						<g>
							<rect x="544.078" y="256.563" style="fill:#83A9FF;" width="41.277" height="3.555"/>
							<rect x="544.078" y="265.539" style="fill:#83A9FF;" width="41.277" height="3.556"/>
							<rect x="544.078" y="274.516" style="fill:#83A9FF;" width="41.277" height="3.556"/>
							<rect x="544.078" y="283.493" style="fill:#83A9FF;" width="20.638" height="3.556"/>
						</g>
					</g>
					<g>
						<g>
							<g>
								<path style="fill:#FFB692;" d="M573.502,262.954c6.249-3.528-0.434-11.543-0.434-11.543l-0.203-7.285
									c0,0-6.481,0.463-4.891,6.778c0,0-5.495-3.446-7.276-7.959c-2.174-5.508-10.056,6.02-9.607,12.016
									c0.244,3.257,5.051,3.965,7.561,7.251C562.148,266.789,569.723,270.413,573.502,262.954z"/>
							</g>
							<g>
								<path style="fill:#D88D87;" d="M562.466,255.997l-0.283,0.447c0,0-6.327-2.998-9.573-7.874
									c0.133-0.291,0.271-0.581,0.417-0.867C554.146,249.78,556.734,253.201,562.466,255.997z"/>
								<path style="fill:#D88D87;" d="M560.13,259.149c0,0-5.735-2.643-8.943-6.09c0.049-0.319,0.115-0.645,0.192-0.976
									c1.337,1.497,4.272,4.319,9.066,6.595L560.13,259.149z"/>
								<path style="fill:#D88D87;" d="M564.641,253.104c0,0-6.545-2.86-9.129-9.223c0.289-0.344,0.58-0.659,0.871-0.941
									c0.936,2.516,3.179,6.623,8.434,9.844L564.641,253.104z"/>
							</g>
						</g>
						<path style="fill:none;stroke:#FFB692;stroke-width:9;stroke-miterlimit:10;" d="M625.977,220.011
							c0.867,40.804-13.959,62.595-58.899,40.321"/>
						<path style="fill:#FF8B0D;" d="M633.127,237.598l3.003-17.494c0.602-4.95-2.932-9.449-7.894-10.05h0
							c-4.962-0.601-9.472,2.925-10.074,7.874l-3.003,17.494L633.127,237.598z"/>
					</g>
				</g>
			</g>
		</g>
		<rect x="59.639" y="443.114" style="fill:#3E5C70;" width="630.722" height="3.161"/>
	</g>
</g>
</svg>
